<svg xmlns="http://www.w3.org/2000/svg" xmlns:xlink="http://www.w3.org/1999/xlink" width="500" zoomAndPan="magnify" viewBox="0 0 375 374.999991" height="500" preserveAspectRatio="xMidYMid meet" version="1.0"><defs><g/><clipPath id="9a36c3ed43"><path d="M 163.257812 95.253906 L 209 95.253906 L 209 233.964844 L 163.257812 233.964844 Z M 163.257812 95.253906 " clip-rule="nonzero"/></clipPath></defs><g fill="#e8aa42" fill-opacity="1"><g transform="translate(169.279388, 228.969887)"><g><path d="M 6.007812 -60.09375 C 6.007812 -22.59375 32.929688 2.402344 65.984375 2.402344 C 86.535156 2.402344 106.246094 -3.964844 112.136719 -12.859375 L 112.136719 -65.140625 L 101.796875 -65.140625 L 101.796875 -25.121094 C 101.796875 -9.375 79.203125 0 65.984375 0 C 38.21875 0 15.625 -24.039062 15.625 -60.09375 C 15.625 -96.148438 38.21875 -120.1875 65.984375 -120.1875 C 86.535156 -120.1875 104.082031 -106.003906 105.886719 -92.542969 C 105.886719 -92.542969 111.292969 -92.304688 111.292969 -99.15625 C 111.292969 -114.660156 87.738281 -122.589844 65.984375 -122.589844 C 32.929688 -122.589844 6.007812 -97.59375 6.007812 -60.09375 Z M 6.007812 -60.09375 "/></g></g></g><g clip-path="url(#9a36c3ed43)"><path fill="#231955" d="M 163.257812 95.253906 L 208.960938 95.253906 L 208.960938 234.121094 L 163.257812 234.121094 Z M 163.257812 95.253906 " fill-opacity="1" fill-rule="nonzero"/></g><g fill="#e8aa42" fill-opacity="1"><g transform="translate(95.157155, 228.969887)"><g><path d="M 12.980469 0 L 19.351562 -22.476562 C 20.433594 -26.320312 23.316406 -31.488281 25.960938 -33.414062 C 32.929688 -38.460938 40.503906 -40.863281 48.195312 -40.863281 C 61.777344 -40.863281 79.804688 -32.8125 85.695312 -19.589844 L 94.46875 0 L 105.042969 0 L 51.441406 -120.1875 L 40.863281 -120.1875 L 43.386719 -114.539062 L 2.402344 0 Z M 26.082031 -45.550781 L 43.148438 -104.921875 C 43.75 -106.847656 44.46875 -107.808594 45.3125 -107.808594 C 46.03125 -107.808594 46.875 -106.96875 47.59375 -105.285156 L 78.601562 -35.816406 C 80.042969 -32.570312 79.324219 -31.96875 76.558594 -34.253906 C 67.425781 -41.703125 55.886719 -47.113281 44.589844 -47.113281 C 39.300781 -47.113281 34.132812 -45.910156 29.324219 -43.265625 C 28.125 -42.667969 27.28125 -42.304688 26.679688 -42.304688 C 25.601562 -42.304688 25.480469 -43.386719 26.082031 -45.550781 Z M 26.082031 -45.550781 "/></g></g></g></svg>