<svg xmlns="http://www.w3.org/2000/svg" xmlns:xlink="http://www.w3.org/1999/xlink" width="500" zoomAndPan="magnify" viewBox="0 0 375 374.999991" height="500" preserveAspectRatio="xMidYMid meet" version="1.0"><defs><g/><clipPath id="a3340bec10"><path d="M 137.257812 37.5 L 226.875 37.5 L 226.875 307.820312 L 137.257812 307.820312 Z M 137.257812 37.5 " clip-rule="nonzero"/></clipPath></defs><rect x="-37.5" width="450" fill="#ffffff" y="-37.499999" height="449.999989" fill-opacity="1"/><rect x="-37.5" width="450" fill="#ffffff" y="-37.499999" height="449.999989" fill-opacity="1"/><rect x="-37.5" width="450" fill="#231955" y="-37.499999" height="449.999989" fill-opacity="1"/><g fill="#e8aa42" fill-opacity="1"><g transform="translate(148.991832, 298.087698)"><g><path d="M 11.710938 -117.109375 C 11.710938 -44.035156 64.175781 4.683594 128.585938 4.683594 C 168.636719 4.683594 207.050781 -7.730469 218.527344 -25.0625 L 218.527344 -126.949219 L 198.382812 -126.949219 L 198.382812 -48.953125 C 198.382812 -18.269531 154.351562 0 128.585938 0 C 74.480469 0 30.449219 -46.84375 30.449219 -117.109375 C 30.449219 -187.375 74.480469 -234.21875 128.585938 -234.21875 C 168.636719 -234.21875 202.835938 -206.582031 206.347656 -180.351562 C 206.347656 -180.351562 216.886719 -179.882812 216.886719 -193.230469 C 216.886719 -223.445312 170.980469 -238.90625 128.585938 -238.90625 C 64.175781 -238.90625 11.710938 -190.1875 11.710938 -117.109375 Z M 11.710938 -117.109375 "/></g></g></g><g clip-path="url(#a3340bec10)"><path fill="#231955" d="M 137.257812 37.5 L 226.324219 37.5 L 226.324219 308.125 L 137.257812 308.125 Z M 137.257812 37.5 " fill-opacity="1" fill-rule="nonzero"/></g><g fill="#e8aa42" fill-opacity="1"><g transform="translate(4.543097, 298.087698)"><g><path d="M 25.296875 0 L 37.710938 -43.800781 C 39.816406 -51.292969 45.4375 -61.367188 50.589844 -65.113281 C 64.175781 -74.949219 78.933594 -79.636719 93.921875 -79.636719 C 120.390625 -79.636719 155.523438 -63.941406 167 -38.179688 L 184.097656 0 L 204.707031 0 L 100.246094 -234.21875 L 79.636719 -234.21875 L 84.554688 -223.210938 L 4.683594 0 Z M 50.824219 -88.769531 L 84.085938 -204.472656 C 85.257812 -208.222656 86.660156 -210.09375 88.300781 -210.09375 C 89.707031 -210.09375 91.347656 -208.457031 92.75 -205.175781 L 153.179688 -69.796875 C 155.992188 -63.472656 154.585938 -62.300781 149.199219 -66.753906 C 131.398438 -81.273438 108.914062 -91.8125 86.894531 -91.8125 C 76.589844 -91.8125 66.519531 -89.472656 57.148438 -84.320312 C 54.808594 -83.148438 53.167969 -82.445312 51.996094 -82.445312 C 49.890625 -82.445312 49.65625 -84.554688 50.824219 -88.769531 Z M 50.824219 -88.769531 "/></g></g></g></svg>